<svg width="24" height="24" viewBox="0 0 24 24" fill="none" xmlns="http://www.w3.org/2000/svg">
<path d="M22.9428 6.88156C23.097 6.37375 22.9428 6 22.2008 6H19.7456C19.1203 6 18.8327 6.32094 18.6785 6.67844C18.6785 6.67844 17.4279 9.64812 15.6605 11.5737C15.0894 12.1303 14.8268 12.3091 14.5142 12.3091C14.3599 12.3091 14.1223 12.1303 14.1223 11.6225V6.88156C14.1223 6.27219 13.9472 6 13.4304 6H9.57036C9.17852 6 8.94509 6.28437 8.94509 6.54844C8.94509 7.12531 9.82881 7.25937 9.92051 8.88437V12.4106C9.92051 13.1825 9.77878 13.3247 9.46615 13.3247C8.63246 13.3247 6.60658 10.3428 5.40607 6.93031C5.1643 6.26813 4.92669 6 4.29725 6H1.84203C1.14173 6 1 6.32094 1 6.67844C1 7.31219 1.83369 10.4606 4.88084 14.6206C6.91088 17.4603 9.77045 19 12.3716 19C13.9347 19 14.1265 18.6587 14.1265 18.0697C14.1265 15.3559 13.9848 15.1 14.7684 15.1C15.1311 15.1 15.7564 15.2787 17.2153 16.6478C18.8827 18.2728 19.1578 19 20.0916 19H22.5468C23.2471 19 23.6014 18.6587 23.3972 17.9844C22.9303 16.5666 19.7748 13.6497 19.633 13.4547C19.2704 12.9997 19.3746 12.7966 19.633 12.3903C19.6372 12.3863 22.6343 8.275 22.9428 6.88156Z" fill="#0B1023"/>
</svg>
