<svg width="24" height="24" viewBox="0 0 24 24" fill="none" xmlns="http://www.w3.org/2000/svg">
<path d="M21.9656 6.54376C21.8795 6.19812 21.7108 5.87854 21.474 5.61239C21.2373 5.34625 20.9395 5.14148 20.6063 5.01563C17.4 3.77813 12.2812 3.78751 12 3.78751C11.7188 3.78751 6.6 3.77813 3.39375 5.01563C3.06051 5.14148 2.76275 5.34625 2.52599 5.61239C2.28923 5.87854 2.12054 6.19812 2.03438 6.54376C1.79063 7.47188 1.5 9.17813 1.5 12C1.5 14.8219 1.79063 16.5281 2.03438 17.4563C2.12054 17.8019 2.28923 18.1215 2.52599 18.3876C2.76275 18.6538 3.06051 18.8585 3.39375 18.9844C6.46875 20.175 11.2875 20.2125 11.9344 20.2125H12.0656C12.7125 20.2125 17.5312 20.175 20.6063 18.9844C20.9395 18.8585 21.2373 18.6538 21.474 18.3876C21.7108 18.1215 21.8795 17.8019 21.9656 17.4563C22.2094 16.5281 22.5 14.8219 22.5 12C22.5 9.17813 22.2094 7.47188 21.9656 6.54376ZM15.2062 12.3094L10.7062 15.3094C10.6466 15.3533 10.5741 15.3764 10.5 15.375C10.4379 15.3727 10.3771 15.3567 10.3219 15.3281C10.262 15.297 10.2118 15.2498 10.1771 15.1919C10.1423 15.134 10.1243 15.0675 10.125 15V9.00001C10.1243 8.93247 10.1423 8.86605 10.1771 8.80813C10.2118 8.75022 10.262 8.70305 10.3219 8.67188C10.3817 8.63999 10.449 8.62489 10.5167 8.62819C10.5843 8.63149 10.6499 8.65307 10.7062 8.69063L15.2062 11.6906C15.2585 11.7236 15.3016 11.7692 15.3315 11.8233C15.3614 11.8774 15.377 11.9382 15.377 12C15.377 12.0618 15.3614 12.1226 15.3315 12.1767C15.3016 12.2308 15.2585 12.2764 15.2062 12.3094Z" fill="#0B1023"/>
</svg>
